<svg xmlns="http://www.w3.org/2000/svg" viewBox="0 0 512 512">
  <path fill="currentColor" d="M238.9 22.6c-4.4-12.7-22.3-13-26.9-.4C198.8 61.3 167.3 98.3 135 130.6 122.9 142.7 85.1 140 76.6 155c-11.3 20 22.7 54.4 22.7 82.8 0 20.3-8.8 38.1-13.8 57.3-6.2 23.6 1.9 49.3 13.9 70.3 17.6 30.7 42.6 56.4 71.9 76.8 24.6 17.1 53 29.7 83.1 34.3 27.6 4.2 56.8-2.6 82.5-13.8 34.8-15.2 65.6-38.3 90.3-67.6 15.2-18 27.8-38.2 34.8-61 4.7-15.2 6.5-31.5 2.1-47-5.2-18.4-18.8-33.1-34.4-44.5-23.7-17.3-43.2-39.7-56.5-66.2-7.8-15.6-13.6-32.2-15.3-49.7-1.1-11.5 1.5-23.3 6.6-33.8 4.7-9.6 4.4-21.4-2.5-30.2-16.7-21.4-42-32.9-68.5-38.5-24.5-5.2-46.4 4.3-67.6 14.8-19.8 9.8-38.8 21.6-60.5 27.8-10.4 3-21.3 2.1-31.4-2.2z"/>
</svg>